<?xml version="1.0" encoding="utf-8"?>
<!-- Generator: Adobe Illustrator 26.0.3, SVG Export Plug-In . SVG Version: 6.00 Build 0)  -->
<svg version="1.1" id="Layer_1" xmlns="http://www.w3.org/2000/svg" xmlns:xlink="http://www.w3.org/1999/xlink" x="0px" y="0px"
	 width="512px" height="512px" viewBox="0 0 512 512" style="enable-background:new 0 0 512 512;" xml:space="preserve">
<style type="text/css">
	.st0{fill:#0099CC;}
</style>
<path class="st0" d="M161.8,471.5c-14.5,0-28.1-8-35.1-21L30.5,275c-6.5-12-6.5-26.6,0-38.6l96.2-175.4c7-13,20.5-20.5,35.1-20.5
	l188.4,0c14.5,0,28.1,8,35.1,20.5l96.2,175.4c3.5,6,5,12.5,5,19.5c0,7-1.5,13-5,19l-96.2,175.4c-7,13-20.5,21-35.1,21L161.8,471.5z"
	/>
<g>
	<path d="M402.8,460.5l96.2-175.4c10-18,10-39.6,0-57.6L402.8,52c-10.5-19.5-30.6-31.6-52.6-31.6H161.8c-22.1,0-42.1,12-52.6,31.1
		L12.9,226.9c-5,9-7.5,19-7.5,29.1c0,10,2.5,20,7.5,29.1l96.2,175.4c10.5,19,30.6,31.1,52.6,31.1h188.4
		C372.3,491.5,392.3,479.5,402.8,460.5L402.8,460.5z M161.8,471.5c-14.5,0-28.1-8-35.1-21L30.5,275c-6.5-12-6.5-26.6,0-38.6
		l96.2-175.4c7-13,20.5-20.5,35.1-20.5l188.4,0c14.5,0,28.1,8,35.1,20.5l96.2,175.4c3.5,6,5,12.5,5,19.5c0,7-1.5,13-5,19
		l-96.2,175.4c-7,13-20.5,21-35.1,21L161.8,471.5z"/>
	<path d="M304.8,157.7c-0.5-0.5-0.5-1-1-1c-2-2-49.1-48.6-103.2-27.1c-3,1.5-5.5,4-6,7.5c-0.5,3.5,0.5,7,3,9
		c0,0,17.5,16.5,26.1,39.6c-21.6,16.5-37.6,36.6-46.1,49.6c-14-20.5-44.6-55.6-90.2-55.6c-3.5,0-7,2-8.5,5c-1.5,3-2,7,0,10
		c0,0.5,15.5,28.6,15.5,59.1c0,31.1-16,61.1-16,61.1c-1.5,3-1.5,7,0,10c2,3,5,5,8.5,5c45.6,0,76.2-35.1,90.7-55.6
		c9,13.5,24.6,34.1,46.6,50.6c-8.5,23.6-26.1,40.1-26.1,40.1c-2.5,2.5-3.5,6-3,9c0.5,3,3,6,6,7.5c10,4,20,5.5,29.6,5.5
		c40.6,0,72.2-31.1,73.7-32.6c0.5-0.5,1-1.5,1.5-2.5c65.2-2,108.3-56.6,123.8-80.2c6.5-10,6.5-23.6,0-33.6
		C414.1,213.9,371,158.7,304.8,157.7L304.8,157.7z M223.1,144.2c22.1-2.5,42.1,7.5,54.1,16c-13,3-25.6,8-36.1,14
		C235.7,162.2,228.6,151.7,223.1,144.2L223.1,144.2z M103.3,308.1c5-13.5,11-33.1,11-54.1c0-20.5-5.5-39.1-10.5-52.1
		c33.1,8.5,55.1,41.1,62.1,53.1C159,267,136.9,299.6,103.3,308.1L103.3,308.1z M189,255c10.5-17,51.1-77.2,114.3-77.2
		c5.5,0,10.5,0.5,15.5,1.5c-13,14-22.1,32.1-26.1,51.6c-10-12-26.6-26.1-49.1-26.1c-3.5,0-7,2-8.5,5c-2,3-2,7,0,10
		c0,0,8.5,15.5,8.5,32.1s-8.5,33.1-8.5,33.1c-1.5,3-1.5,7,0,10c2,3,5,5,8.5,5c22.6,0,38.6-13.5,49.1-25.6
		c4,20.5,13.5,41.1,27.1,56.6c-5.5,1-11,1.5-16.5,1.5C239.7,332.1,199.1,272,189,255L189,255z M259.7,228.9
		c11.5,6,19.5,17,23.6,23.1c-4,6-12.5,17-24.1,23.1c2-7,3.5-15,3.5-23.6C262.7,243.4,261.2,235.4,259.7,228.9L259.7,228.9z
		 M223.1,366.7c6-7.5,13-18,18-30.6c11,6,23.6,11,37.1,14C266.2,358.2,245.7,369.2,223.1,366.7L223.1,366.7z M412.6,260.5
		C402,277,377,309.6,339.9,324.6c-0.5-1-1-1.5-1.5-2.5c-14-14-28.6-40.6-28.6-67.2c0-28.1,12-54.1,31.6-69.7
		c36.1,15,60.6,47.6,71.2,63.6C415.1,252.5,415.1,257.5,412.6,260.5L412.6,260.5z"/>
	<path d="M361.9,230.9c0,5.5-4.5,10-10,10c-5.5,0-10-4.5-10-10c0-5.5,4.5-10,10-10C357.5,220.9,361.9,225.4,361.9,230.9"/>
</g>
</svg>
